name Walk4.mot
datacolumns 19
datarows 15
range 1.62500000 1.69500000
endheader

                time	   L_ground_force_vx	   L_ground_force_vy	   L_ground_force_vz	   L_ground_force_px	   L_ground_force_py	   L_ground_force_pz	   R_ground_force_vx	   R_ground_force_vy	   R_ground_force_vz	   R_ground_force_px	   R_ground_force_py	   R_ground_force_pz	   L_ground_torque_x	   L_ground_torque_y	   L_ground_torque_z	   R_ground_torque_x	   R_ground_torque_y	   R_ground_torque_z	
          1.62500000	         26.19231597	        934.09620492	         83.42072524	         -0.22294652	          0.00000000	         -0.08384201	         -0.01681179	          0.31035408	          0.02665856	          0.00023089	          0.00000000	          0.00005874	          0.00000000	         -1.69069708	          0.00000000	          0.00000000	          0.00073473	          0.00000000	
          1.63000000	         29.18379825	        944.78643778	         84.52747615	         -0.22150936	          0.00000000	         -0.08426405	         -0.02746156	          0.42993117	          0.03591899	          0.00029757	          0.00000000	          0.00007505	          0.00000000	         -1.73592745	          0.00000000	          0.00000000	          0.00199224	          0.00000000	
          1.63500000	         32.55648273	        955.68894908	         85.55093950	         -0.22014851	          0.00000000	         -0.08463264	         -0.04068181	          0.56337467	          0.04592970	          0.00036486	          0.00000000	          0.00009122	          0.00000000	         -1.79291233	          0.00000000	          0.00000000	          0.00370749	          0.00000000	
          1.64000000	         36.31489539	        966.75706671	         86.50342630	         -0.21885910	          0.00000000	         -0.08494996	         -0.05628000	          0.70198383	          0.05587577	          0.00042480	          0.00000000	          0.00010518	          0.00000000	         -1.85798075	          0.00000000	          0.00000000	          0.00592497	          0.00000000	
          1.64500000	         40.44667937	        977.94330363	         87.39710837	         -0.21763445	          0.00000000	         -0.08522069	         -0.07366260	          0.83155384	          0.06449441	          0.00046587	          0.00000000	          0.00011399	          0.00000000	         -1.92717762	          0.00000000	          0.00000000	          0.00865214	          0.00000000	
          1.65000000	         44.92211840	        989.18858496	         88.24281922	         -0.21646665	          0.00000000	         -0.08545123	         -0.09168400	          0.93104874	          0.06998019	          0.00047245	          0.00000000	          0.00011366	          0.00000000	         -1.99697585	          0.00000000	          0.00000000	          0.01183780	          0.00000000	
          1.65500000	         49.69466960	       1000.41670056	         89.04924854	         -0.21534730	          0.00000000	         -0.08564866	         -0.10847899	          0.97137461	          0.06990407	          0.00042446	          0.00000000	          0.00009913	          0.00000000	         -2.06458055	          0.00000000	          0.00000000	          0.01534551	          0.00000000	
          1.66000000	         54.70566214	       1011.53428254	         89.82217012	         -0.21426811	          0.00000000	         -0.08581922	         -0.12129026	          0.91446019	          0.06116423	          0.00029727	          0.00000000	          0.00006424	          0.00000000	         -2.12806467	          0.00000000	          0.00000000	          0.01892283	          0.00000000	
          1.66500000	         59.89267169	       1022.43593748	         90.56232454	         -0.21322132	          0.00000000	         -0.08596813	         -0.12630939	          0.71293037	          0.03999225	          0.00006227	          0.00000000	          0.00000193	          0.00000000	         -2.18600447	          0.00000000	          0.00000000	          0.02216751	          0.00000000	
          1.67000000	         65.19940759	       1033.01167069	         91.26489507	         -0.21220074	          0.00000000	         -0.08610038	         -0.11855864	          0.31074454	          0.00204491	         -0.00031186	          0.00000000	         -0.00009549	          0.00000000	         -2.23731239	          0.00000000	          0.00000000	          0.02449333	          0.00000000	
          1.67500000	         70.58233563	       1043.14998360	         91.92022042	         -0.21120161	          0.00000000	         -0.08622042	         -0.09185065	         -0.35473942	         -0.05738158	         -0.00085681	          0.00000000	         -0.00023562	          0.00000000	         -2.28098796	          0.00000000	          0.00000000	          0.02509945	          0.00000000	
          1.68000000	         76.01512534	       1052.74186858	         92.51628688	         -0.21022029	          0.00000000	         -0.08633137	         -0.03887499	         -1.34873227	         -0.14297330	         -0.00160092	          0.00000000	         -0.00042509	          0.00000000	         -2.31633998	          0.00000000	          0.00000000	          0.02294915	          0.00000000	
          1.68500000	         81.48950907	       1061.69036052	         93.04235489	         -0.20925533	          0.00000000	         -0.08643489	          0.04852855	         -2.73240798	         -0.25881066	         -0.00256384	          0.00000000	         -0.00066810	          0.00000000	         -2.34264056	          0.00000000	          0.00000000	          0.01676574	          0.00000000	
          1.69000000	         87.01258585	       1069.90863193	         93.49216579	         -0.20830750	          0.00000000	         -0.08653120	          0.17883892	         -4.55310119	         -0.40752646	         -0.00374921	          0.00000000	         -0.00096466	          0.00000000	         -2.35928749	          0.00000000	          0.00000000	          0.00505578	          0.00000000	
          1.69500000	         92.60332713	       1077.31916910	         93.86524745	         -0.20737861	          0.00000000	         -0.08662043	          0.35998642	         -6.83072802	         -0.58917142	         -0.00513526	          0.00000000	         -0.00130815	          0.00000000	         -2.36517295	          0.00000000	          0.00000000	         -0.01382802	          0.00000000	
